<svg xmlns="http://www.w3.org/2000/svg" fill="none" viewBox="0 0 65 65" height="65" width="65">
<path fill="#4C6023" d="M6.64551 21.0564L6.78556 20.9163C9.22503 18.4762 13.2051 18.4768 15.6446 20.9163L21.2327 26.5044C22.6829 27.954 25.0549 27.954 26.5051 26.5044C27.9553 25.0542 27.9553 22.6816 26.5051 21.2321L20.9169 15.6446C18.4775 13.2051 18.4775 9.22567 20.9169 6.78556L21.057 6.64551L28.2627 13.8512C32.2256 17.8141 32.2256 24.2992 28.2627 28.2621C24.2999 32.225 17.8148 32.225 13.8519 28.2621L6.64678 21.0564H6.64551Z" clip-rule="evenodd" fill-rule="evenodd"></path>
<path fill="#4C6023" d="M43.9448 6.64492L44.0849 6.78498C46.5244 9.22445 46.5244 13.2045 44.0849 15.644L38.4968 21.2315C37.0466 22.681 37.0466 25.053 38.4968 26.5032C39.947 27.9528 42.3189 27.9528 43.7685 26.5032L49.3566 20.9157C51.7961 18.4756 55.7755 18.4756 58.2156 20.9157L58.3557 21.0558L51.1506 28.2609C47.1877 32.2237 40.7026 32.2237 36.7397 28.2609C32.7769 24.298 32.7769 17.8129 36.7397 13.85L43.9455 6.64429L43.9448 6.64492Z" clip-rule="evenodd" fill-rule="evenodd"></path>
<path fill="#4C6023" d="M58.3553 43.9443L58.2153 44.0844C55.7758 46.5239 51.7964 46.5239 49.3563 44.0844L43.7682 38.4963C42.318 37.0467 39.946 37.0467 38.4964 38.4963C37.0462 39.9465 37.0462 42.3191 38.4964 43.7686L44.0846 49.3568C46.524 51.7969 46.524 55.7757 44.0846 58.2158L43.9445 58.3558L36.7388 51.1501C32.7759 47.1872 32.7759 40.7021 36.7388 36.7392C40.7016 32.7764 47.1867 32.7764 51.1496 36.7392L58.3547 43.9443H58.3553Z" clip-rule="evenodd" fill-rule="evenodd"></path>
<path fill="#4C6023" d="M21.0564 58.3552L20.9163 58.2151C18.4768 55.7757 18.4775 51.7962 20.9163 49.3561L26.5044 43.768C27.954 42.3185 27.954 39.9458 26.5044 38.4963C25.0542 37.0461 22.6822 37.0461 21.2327 38.4963L15.6446 44.0844C13.2051 46.5239 9.22567 46.5245 6.78556 44.0844L6.64551 43.9443L13.8506 36.7392C17.8135 32.7764 24.2986 32.7764 28.2615 36.7392C32.2243 40.7021 32.2243 47.1872 28.2615 51.1501L21.0557 58.3558L21.0564 58.3552Z" clip-rule="evenodd" fill-rule="evenodd"></path>
<path fill="#4C6023" d="M65 32.5C63.1335 30.2496 60.3159 28.816 57.164 28.816C54.0122 28.816 51.1946 30.2496 49.328 32.5C51.1939 34.751 54.0116 36.184 57.164 36.184C60.3165 36.184 63.1341 34.7504 65 32.5ZM0 32.5006C1.86653 34.751 4.68415 36.184 7.83598 36.184C10.9878 36.184 13.8054 34.751 15.672 32.5006C13.8061 30.2496 10.9885 28.816 7.83598 28.816C4.68351 28.816 1.86653 30.2496 0 32.5006ZM32.5006 65C34.751 63.1335 36.1847 60.3159 36.1847 57.164C36.1847 54.0122 34.7517 51.1946 32.5006 49.328C30.2496 51.1939 28.8166 54.0116 28.8166 57.164C28.8166 60.3165 30.2502 63.1341 32.5006 65ZM32.5 0C30.2496 1.86653 28.816 4.68415 28.816 7.83598C28.816 10.9878 30.249 13.8054 32.5 15.672C34.751 13.8054 36.184 10.9878 36.184 7.83598C36.184 4.68415 34.7504 1.86589 32.5 0Z" clip-rule="evenodd" fill-rule="evenodd"></path>
</svg>
